<svg xmlns="http://www.w3.org/2000/svg" viewBox="-2 -2 28 28" x="0px" y="0px">
    <path fill="white"
        d="M19.377,13.01855c.87191,11.71386-15.62811,11.70852-14.7539,0a.4997.4997,0,0,1,.5-.5H18.877A.49972.49972,0,0,1,19.377,13.01855Zm-1.999-9.25781V9.56836a1.58541,1.58541,0,0,1-1.583,1.584H8.20508a1.58541,1.58541,0,0,1-1.583-1.584V3.76074A1.60208,1.60208,0,0,1,8.22266,2.16016h7.55468A1.60208,1.60208,0,0,1,17.37793,3.76074ZM11.377,6.57617a1.4357,1.4357,0,0,0-2.87109.00006A1.4357,1.4357,0,0,0,11.377,6.57617Zm4.11719,0a1.4357,1.4357,0,0,0-2.87109.00006A1.4357,1.4357,0,0,0,15.49414,6.57617Zm-1.43555-.43555a.43572.43572,0,0,0,0,.8711A.43572.43572,0,0,0,14.05859,6.14062Zm-4.11718,0a.43571.43571,0,0,0,0,.8711A.43571.43571,0,0,0,9.94141,6.14062Z" />
</svg>