<svg xmlns="http://www.w3.org/2000/svg" xmlns:xlink="http://www.w3.org/1999/xlink" version="1.1" x="0px" y="0px"
    viewBox="0 0 128 128" enable-background="new 0 0 128 128" xml:space="preserve">

    <g>
        <path
            d="M73.143,76.045l-0.239-0.004c-4.218,0-10.699,3.686-20.929,9.697c-3.064,1.802-5.929,2.96-8.547,3.454l-0.002-4.783   c0-0.979-0.796-1.777-1.776-1.777H23.687c-0.983,0-1.778,0.798-1.778,1.777v8.982c0,5.928,4.818,10.752,10.575,10.752   c0.004,0,0.008,0,0.012,0c0,0,0.196,0.021,0.577,0.021c1.972,0,9.29-0.606,20.8-8.404c9.108-6.17,14.277-8.292,19.667-9.716   c2.907-0.771,4.574-2.584,4.574-4.971C78.113,78.346,75.93,76.134,73.143,76.045z M51.876,92.818   c-10.944,7.414-17.582,7.791-18.805,7.791c-0.138,0-0.223-0.006-0.405-0.014c-3.97,0-7.204-3.231-7.204-7.204v-7.203h14.409   l0.001,5.024c0,0.491,0.205,0.962,0.562,1.298c0.359,0.337,0.844,0.495,1.333,0.476c3.667-0.245,7.706-1.653,12.009-4.182   c3.796-2.23,7.487-4.4,10.71-6.072c0.279,0.701,0.667,1.472,1.204,2.23C61.93,86.557,57.652,88.905,51.876,92.818z M72.632,82.606   c-1.141,0.301-2.274,0.645-3.426,1.028c-0.774-0.736-1.241-1.694-1.518-2.464c2.193-0.977,4.033-1.573,5.339-1.573c0,0,0,0,0.001,0   c0.857,0.028,1.531,0.676,1.531,1.477C74.56,81.918,73.509,82.373,72.632,82.606z" />
        <path
            d="M105.68,80.386l-6.039-7.257c3.528-13.152-1.735-26.727-12.345-34.267c1.342-0.493,2.449-1.435,3.121-2.706   c0.719-1.368,0.863-2.934,0.405-4.41c-0.757-2.433-2.976-4.067-5.521-4.067c-0.581,0-1.158,0.087-1.715,0.263   c-1.735,0.537-3.231,1.682-4.421,2.903c-0.318-1.677-0.927-3.46-2.069-4.872c-1.103-1.359-2.738-2.143-4.49-2.143   c-1.323,0-2.614,0.462-3.641,1.293c-1.199,0.974-1.949,2.354-2.109,3.89c-0.149,1.43,0.247,2.824,1.085,3.981   c-13.422,0.369-24.993,8.933-29.29,21.655l-9.039,2.682c-0.572,0.172-1.022,0.616-1.195,1.191c-0.173,0.57-0.048,1.191,0.335,1.652   c1.977,2.37,4.95,4.245,8.378,5.284c1.868,0.566,3.762,0.849,5.58,0.849c1.517,0,2.98-0.196,4.327-0.598   c2.515-0.742,4.401-2.112,5.495-3.925l31.61,9.58c-0.222,4.735,4.14,9.598,10.776,11.608c1.868,0.563,3.763,0.849,5.578,0.849   c1.517,0,2.977-0.194,4.32-0.596c0.574-0.166,1.022-0.616,1.198-1.187C106.188,81.468,106.063,80.847,105.68,80.386z    M96.451,71.382L85.43,68.041c2.519-9.779,1.329-19.982-3.127-28.123C93.423,45.908,99.427,58.793,96.451,71.382z M56.704,59.333   C60.27,49.287,67.849,41.36,76.961,38.168c5.789,7.721,7.684,18.512,5.067,28.842L56.704,59.333z M84.64,31.335   c1.167-0.369,2.429,0.32,2.787,1.466c0.176,0.569,0.119,1.171-0.158,1.698c-0.275,0.527-0.74,0.913-1.306,1.086   c-1.619,0.504-4.107-0.001-5.693-0.566C81.305,33.597,82.893,31.876,84.64,31.335z M71.204,27.888   c0.401-0.325,0.886-0.499,1.401-0.499c0.673,0,1.305,0.301,1.729,0.827c1.145,1.411,1.512,3.728,1.587,5.491   c-1.707-0.43-3.895-1.269-5.044-2.689c-0.376-0.463-0.549-1.045-0.487-1.633C70.452,28.794,70.74,28.264,71.204,27.888z    M68.845,36.513c0.896,0,1.791,0.059,2.687,0.143C63.3,40.949,56.643,48.774,53.302,58.305l-11.016-3.339   C46.405,43.859,56.864,36.513,68.845,36.513z M46.028,62.304c-2.3,0.679-5.093,0.594-7.868-0.247   c-1.699-0.513-3.247-1.271-4.546-2.202l6.34-1.881l8.924,2.701C48.192,61.375,47.25,61.939,46.028,62.304z M95.947,79.57   c-4.389-1.33-7.67-4.309-8.188-7.111l8.963,2.718l4.23,5.087C99.352,80.298,97.646,80.085,95.947,79.57z" />
    </g>
</svg>